<mxfile host="65bd71144e">
    <diagram id="dfh5OxSNwV6NAsQwS6Wt" name="First Page">
        <mxGraphModel dx="736" dy="400" grid="1" gridSize="10" guides="1" tooltips="1" connect="1" arrows="1" fold="1" page="1" pageScale="1" pageWidth="827" pageHeight="1169" math="0" shadow="0">
            <root>
                <mxCell id="0"/>
                <mxCell id="1" parent="0"/>
                <mxCell id="3" value="QnA Project Title" style="swimlane;whiteSpace=wrap;html=1;startSize=40;" parent="1" vertex="1">
                    <mxGeometry x="40" y="40" width="760" height="560" as="geometry"/>
                </mxCell>
                <mxCell id="4" value="Enter Topic Name" style="rounded=1;whiteSpace=wrap;html=1;" parent="3" vertex="1">
                    <mxGeometry x="200" y="120" width="320" height="40" as="geometry"/>
                </mxCell>
                <mxCell id="5" value="Join Topic" style="strokeWidth=1;shadow=0;dashed=0;align=center;html=1;shape=mxgraph.mockup.buttons.button;strokeColor=#666666;fontColor=#ffffff;mainText=;buttonStyle=round;fontSize=17;fontStyle=1;fillColor=#008cff;whiteSpace=wrap;" parent="3" vertex="1">
                    <mxGeometry x="210" y="210" width="110" height="20" as="geometry"/>
                </mxCell>
                <mxCell id="6" value="Create Topic" style="strokeWidth=1;shadow=0;dashed=0;align=center;html=1;shape=mxgraph.mockup.buttons.button;strokeColor=#666666;fontColor=#ffffff;mainText=;buttonStyle=round;fontSize=17;fontStyle=1;fillColor=#008cff;whiteSpace=wrap;" parent="3" vertex="1">
                    <mxGeometry x="410" y="210" width="110" height="20" as="geometry"/>
                </mxCell>
                <mxCell id="7" value="Ongoing Topic Conversations" style="swimlane;fontStyle=0;childLayout=stackLayout;horizontal=1;startSize=30;horizontalStack=0;resizeParent=1;resizeParentMax=0;resizeLast=0;collapsible=1;marginBottom=0;whiteSpace=wrap;html=1;" parent="3" vertex="1">
                    <mxGeometry x="120" y="320" width="520" height="120" as="geometry"/>
                </mxCell>
                <mxCell id="8" value="Topic 1" style="text;strokeColor=none;fillColor=none;align=left;verticalAlign=middle;spacingLeft=4;spacingRight=4;overflow=hidden;points=[[0,0.5],[1,0.5]];portConstraint=eastwest;rotatable=0;whiteSpace=wrap;html=1;" parent="7" vertex="1">
                    <mxGeometry y="30" width="520" height="30" as="geometry"/>
                </mxCell>
                <mxCell id="9" value="Topic 2" style="text;strokeColor=none;fillColor=none;align=left;verticalAlign=middle;spacingLeft=4;spacingRight=4;overflow=hidden;points=[[0,0.5],[1,0.5]];portConstraint=eastwest;rotatable=0;whiteSpace=wrap;html=1;" parent="7" vertex="1">
                    <mxGeometry y="60" width="520" height="30" as="geometry"/>
                </mxCell>
                <mxCell id="10" value="Topic 3" style="text;strokeColor=none;fillColor=none;align=left;verticalAlign=middle;spacingLeft=4;spacingRight=4;overflow=hidden;points=[[0,0.5],[1,0.5]];portConstraint=eastwest;rotatable=0;whiteSpace=wrap;html=1;" parent="7" vertex="1">
                    <mxGeometry y="90" width="520" height="30" as="geometry"/>
                </mxCell>
                <mxCell id="yw-NNCOrLJlEG6Cfuwei-10" value="&lt;i&gt;Note: User will be prompted to Signup or Login when they Join or Choose a topic&lt;/i&gt;" style="text;html=1;strokeColor=none;fillColor=none;align=center;verticalAlign=middle;whiteSpace=wrap;rounded=0;fontSize=8;" parent="3" vertex="1">
                    <mxGeometry x="560" y="210" width="140" height="70" as="geometry"/>
                </mxCell>
            </root>
        </mxGraphModel>
    </diagram>
    <diagram id="CoX_8JR1XfD17hhr654m" name="Signup">
        <mxGraphModel dx="736" dy="684" grid="1" gridSize="10" guides="1" tooltips="1" connect="1" arrows="1" fold="1" page="1" pageScale="1" pageWidth="827" pageHeight="1169" math="0" shadow="0">
            <root>
                <mxCell id="0"/>
                <mxCell id="1" parent="0"/>
                <mxCell id="gjrfYO2ACXJyuvNmUzrk-1" value="My Profile - Sign Up" style="swimlane;whiteSpace=wrap;html=1;" parent="1" vertex="1">
                    <mxGeometry x="240" y="120" width="360" height="400" as="geometry"/>
                </mxCell>
                <mxCell id="gjrfYO2ACXJyuvNmUzrk-2" value="" style="shape=actor;whiteSpace=wrap;html=1;" parent="gjrfYO2ACXJyuvNmUzrk-1" vertex="1">
                    <mxGeometry x="160" y="40" width="40" height="40" as="geometry"/>
                </mxCell>
                <mxCell id="gjrfYO2ACXJyuvNmUzrk-3" value="Display Name" style="rounded=1;whiteSpace=wrap;html=1;" parent="gjrfYO2ACXJyuvNmUzrk-1" vertex="1">
                    <mxGeometry x="90" y="90" width="180" height="30" as="geometry"/>
                </mxCell>
                <mxCell id="gjrfYO2ACXJyuvNmUzrk-4" value="Email" style="rounded=1;whiteSpace=wrap;html=1;" parent="gjrfYO2ACXJyuvNmUzrk-1" vertex="1">
                    <mxGeometry x="90" y="170" width="180" height="30" as="geometry"/>
                </mxCell>
                <mxCell id="gjrfYO2ACXJyuvNmUzrk-5" value="Password" style="rounded=1;whiteSpace=wrap;html=1;" parent="gjrfYO2ACXJyuvNmUzrk-1" vertex="1">
                    <mxGeometry x="90" y="250" width="180" height="30" as="geometry"/>
                </mxCell>
                <mxCell id="gjrfYO2ACXJyuvNmUzrk-6" value="Submit" style="ellipse;whiteSpace=wrap;html=1;" parent="gjrfYO2ACXJyuvNmUzrk-1" vertex="1">
                    <mxGeometry x="120" y="320" width="120" height="30" as="geometry"/>
                </mxCell>
                <mxCell id="gjrfYO2ACXJyuvNmUzrk-7" value="Already have an account? &lt;u&gt;Log in here&lt;/u&gt;" style="text;html=1;strokeColor=none;fillColor=none;align=center;verticalAlign=middle;whiteSpace=wrap;rounded=0;" parent="gjrfYO2ACXJyuvNmUzrk-1" vertex="1">
                    <mxGeometry x="60" y="360" width="240" height="30" as="geometry"/>
                </mxCell>
            </root>
        </mxGraphModel>
    </diagram>
    <diagram id="fzvm94xmVaud8l0bwNrb" name="Login">
        <mxGraphModel dx="736" dy="684" grid="1" gridSize="10" guides="1" tooltips="1" connect="1" arrows="1" fold="1" page="1" pageScale="1" pageWidth="827" pageHeight="1169" math="0" shadow="0">
            <root>
                <mxCell id="0"/>
                <mxCell id="1" parent="0"/>
                <mxCell id="P9VRNq6QOubat0qr5RGb-1" value="My Profile - Log In" style="swimlane;whiteSpace=wrap;html=1;" parent="1" vertex="1">
                    <mxGeometry x="234" y="120" width="360" height="400" as="geometry"/>
                </mxCell>
                <mxCell id="P9VRNq6QOubat0qr5RGb-2" value="" style="shape=actor;whiteSpace=wrap;html=1;" parent="P9VRNq6QOubat0qr5RGb-1" vertex="1">
                    <mxGeometry x="166" y="50" width="40" height="40" as="geometry"/>
                </mxCell>
                <mxCell id="P9VRNq6QOubat0qr5RGb-4" value="Display Name/Email" style="rounded=1;whiteSpace=wrap;html=1;" parent="P9VRNq6QOubat0qr5RGb-1" vertex="1">
                    <mxGeometry x="90" y="130" width="180" height="30" as="geometry"/>
                </mxCell>
                <mxCell id="P9VRNq6QOubat0qr5RGb-5" value="Password" style="rounded=1;whiteSpace=wrap;html=1;" parent="P9VRNq6QOubat0qr5RGb-1" vertex="1">
                    <mxGeometry x="90" y="210" width="180" height="30" as="geometry"/>
                </mxCell>
                <mxCell id="P9VRNq6QOubat0qr5RGb-6" value="Submit" style="ellipse;whiteSpace=wrap;html=1;" parent="P9VRNq6QOubat0qr5RGb-1" vertex="1">
                    <mxGeometry x="120" y="290" width="120" height="30" as="geometry"/>
                </mxCell>
                <mxCell id="P9VRNq6QOubat0qr5RGb-7" value="Don't have an account? &lt;u&gt;Sign up here&lt;/u&gt;" style="text;html=1;strokeColor=none;fillColor=none;align=center;verticalAlign=middle;whiteSpace=wrap;rounded=0;" parent="P9VRNq6QOubat0qr5RGb-1" vertex="1">
                    <mxGeometry x="60" y="360" width="240" height="30" as="geometry"/>
                </mxCell>
            </root>
        </mxGraphModel>
    </diagram>
    <diagram id="hVGZN72YGQw6HtDagJa8" name="Main Page">
        <mxGraphModel dx="736" dy="684" grid="1" gridSize="10" guides="1" tooltips="1" connect="1" arrows="1" fold="1" page="1" pageScale="1" pageWidth="827" pageHeight="1169" math="0" shadow="0">
            <root>
                <mxCell id="0"/>
                <mxCell id="1" parent="0"/>
                <mxCell id="1wIh-J4AiBjrx2nC4E3j-1" value="QnA Project Title" style="swimlane;whiteSpace=wrap;html=1;startSize=40;fontStyle=0" parent="1" vertex="1">
                    <mxGeometry x="40" y="40" width="760" height="560" as="geometry"/>
                </mxCell>
                <mxCell id="1wIh-J4AiBjrx2nC4E3j-13" value="" style="rounded=1;whiteSpace=wrap;html=1;fontStyle=0" parent="1wIh-J4AiBjrx2nC4E3j-1" vertex="1">
                    <mxGeometry x="160" y="60" width="440" height="120" as="geometry"/>
                </mxCell>
                <mxCell id="1wIh-J4AiBjrx2nC4E3j-10" value="" style="sketch=0;aspect=fixed;pointerEvents=1;shadow=0;dashed=0;html=1;strokeColor=none;labelPosition=center;verticalLabelPosition=bottom;verticalAlign=top;align=center;fillColor=#00188D;shape=mxgraph.mscae.enterprise.protocol_stack;fontStyle=0" parent="1wIh-J4AiBjrx2nC4E3j-1" vertex="1">
                    <mxGeometry y="10" width="29.41" height="20" as="geometry"/>
                </mxCell>
                <mxCell id="1wIh-J4AiBjrx2nC4E3j-14" value="Type your question" style="text;html=1;strokeColor=none;fillColor=none;align=center;verticalAlign=middle;whiteSpace=wrap;rounded=0;fontStyle=0" parent="1wIh-J4AiBjrx2nC4E3j-1" vertex="1">
                    <mxGeometry x="160" y="60" width="110" height="30" as="geometry"/>
                </mxCell>
                <mxCell id="qwi-tcZrJFymVucxJc4y-1" value="" style="rounded=1;whiteSpace=wrap;html=1;align=left;fontStyle=0" parent="1wIh-J4AiBjrx2nC4E3j-1" vertex="1">
                    <mxGeometry x="160" y="150" width="170" height="30" as="geometry"/>
                </mxCell>
                <mxCell id="qwi-tcZrJFymVucxJc4y-5" value="Ask Anonymously" style="rounded=1;arcSize=10;fillColor=#172B4D;strokeColor=none;html=1;fontSize=11;align=left;fontColor=#ffffff;fontStyle=0;fontSize=11;sketch=0;hachureGap=4;pointerEvents=0;fontFamily=Architects Daughter;fontSource=https%3A%2F%2Ffonts.googleapis.com%2Fcss%3Ffamily%3DArchitects%2BDaughter;" parent="1wIh-J4AiBjrx2nC4E3j-1" vertex="1">
                    <mxGeometry x="160" y="155" width="150" height="20" as="geometry"/>
                </mxCell>
                <mxCell id="qwi-tcZrJFymVucxJc4y-7" value="Topic Name" style="rounded=1;whiteSpace=wrap;html=1;fontStyle=0" parent="1wIh-J4AiBjrx2nC4E3j-1" vertex="1">
                    <mxGeometry width="210" height="40" as="geometry"/>
                </mxCell>
                <mxCell id="qwi-tcZrJFymVucxJc4y-2" value="" style="fillColor=#36B37E;strokeColor=none;rounded=1;arcSize=50;sketch=0;hachureGap=4;pointerEvents=0;fontFamily=Architects Daughter;fontSource=https%3A%2F%2Ffonts.googleapis.com%2Fcss%3Ffamily%3DArchitects%2BDaughter;fontSize=20;fontStyle=0" parent="1wIh-J4AiBjrx2nC4E3j-1" vertex="1">
                    <mxGeometry x="265" y="157" width="30" height="16" as="geometry"/>
                </mxCell>
                <mxCell id="qwi-tcZrJFymVucxJc4y-3" value="" style="shape=ellipse;strokeColor=none;fillColor=#9AD9BE;sketch=0;hachureGap=4;pointerEvents=0;fontFamily=Architects Daughter;fontSource=https%3A%2F%2Ffonts.googleapis.com%2Fcss%3Ffamily%3DArchitects%2BDaughter;fontSize=20;fontStyle=0" parent="qwi-tcZrJFymVucxJc4y-2" vertex="1">
                    <mxGeometry x="1" y="0.5" width="12" height="12" relative="1" as="geometry">
                        <mxPoint x="-14" y="-6" as="offset"/>
                    </mxGeometry>
                </mxCell>
                <mxCell id="qwi-tcZrJFymVucxJc4y-4" value="" style="html=1;shadow=0;dashed=0;shape=mxgraph.atlassian.check;strokeColor=#9AD9BE;sketch=1;hachureGap=4;pointerEvents=0;fontFamily=Architects Daughter;fontSource=https%3A%2F%2Ffonts.googleapis.com%2Fcss%3Ffamily%3DArchitects%2BDaughter;fontSize=20;fontStyle=0" parent="qwi-tcZrJFymVucxJc4y-2" vertex="1">
                    <mxGeometry y="0.5" width="6" height="5" relative="1" as="geometry">
                        <mxPoint x="4" y="-3" as="offset"/>
                    </mxGeometry>
                </mxCell>
                <mxCell id="qwi-tcZrJFymVucxJc4y-10" value="&lt;font style=&quot;font-size: 8px;&quot;&gt;Num Questions&lt;/font&gt;" style="text;html=1;strokeColor=none;fillColor=none;align=center;verticalAlign=middle;whiteSpace=wrap;rounded=0;fontStyle=0" parent="1wIh-J4AiBjrx2nC4E3j-1" vertex="1">
                    <mxGeometry x="540" y="190" width="60" height="30" as="geometry"/>
                </mxCell>
                <mxCell id="qwi-tcZrJFymVucxJc4y-11" value="&lt;font style=&quot;font-size: 12px;&quot;&gt;Send&lt;/font&gt;" style="rounded=1;whiteSpace=wrap;html=1;fontSize=8;fontStyle=0" parent="1wIh-J4AiBjrx2nC4E3j-1" vertex="1">
                    <mxGeometry x="530" y="150" width="70" height="30" as="geometry"/>
                </mxCell>
                <mxCell id="qwi-tcZrJFymVucxJc4y-12" value="" style="rounded=1;whiteSpace=wrap;html=1;fontSize=12;fontStyle=0" parent="1wIh-J4AiBjrx2nC4E3j-1" vertex="1">
                    <mxGeometry x="160" y="220" width="440" height="150" as="geometry"/>
                </mxCell>
                <mxCell id="qwi-tcZrJFymVucxJc4y-13" value="" style="rounded=1;whiteSpace=wrap;html=1;fontSize=12;fontStyle=0" parent="1wIh-J4AiBjrx2nC4E3j-1" vertex="1">
                    <mxGeometry x="170" y="270" width="420" height="80" as="geometry"/>
                </mxCell>
                <mxCell id="qwi-tcZrJFymVucxJc4y-14" value="&lt;font style=&quot;font-size: 8px;&quot;&gt;Asker Name&lt;/font&gt;" style="text;html=1;strokeColor=none;fillColor=none;align=center;verticalAlign=middle;whiteSpace=wrap;rounded=0;fontSize=12;fontStyle=0" parent="1wIh-J4AiBjrx2nC4E3j-1" vertex="1">
                    <mxGeometry x="170" y="220" width="50" height="20" as="geometry"/>
                </mxCell>
                <mxCell id="qwi-tcZrJFymVucxJc4y-16" value="&lt;font style=&quot;font-size: 6px;&quot;&gt;NumUpvotes&lt;/font&gt;" style="rounded=1;whiteSpace=wrap;html=1;fontSize=8;align=left;fontStyle=0" parent="1wIh-J4AiBjrx2nC4E3j-1" vertex="1">
                    <mxGeometry x="520" y="220" width="80" height="20" as="geometry"/>
                </mxCell>
                <mxCell id="qwi-tcZrJFymVucxJc4y-18" value="" style="sketch=0;html=1;aspect=fixed;strokeColor=none;shadow=0;align=center;verticalAlign=top;fillColor=#3B8DF1;shape=mxgraph.gcp2.thumbs_up;fontSize=6;fontStyle=0" parent="1wIh-J4AiBjrx2nC4E3j-1" vertex="1">
                    <mxGeometry x="570" y="220" width="20" height="20" as="geometry"/>
                </mxCell>
                <mxCell id="qwi-tcZrJFymVucxJc4y-22" value="Question" style="rounded=1;whiteSpace=wrap;html=1;fontSize=12;fontStyle=0" parent="1wIh-J4AiBjrx2nC4E3j-1" vertex="1">
                    <mxGeometry x="170" y="240" width="420" height="30" as="geometry"/>
                </mxCell>
                <mxCell id="qwi-tcZrJFymVucxJc4y-23" value="&lt;font style=&quot;font-size: 8px;&quot;&gt;Answerer Name&lt;/font&gt;" style="text;html=1;strokeColor=none;fillColor=none;align=center;verticalAlign=middle;whiteSpace=wrap;rounded=0;fontSize=12;fontStyle=0" parent="1wIh-J4AiBjrx2nC4E3j-1" vertex="1">
                    <mxGeometry x="170" y="265" width="60" height="30" as="geometry"/>
                </mxCell>
                <mxCell id="qwi-tcZrJFymVucxJc4y-24" value="" style="rounded=1;whiteSpace=wrap;html=1;fontSize=8;fontStyle=0" parent="1wIh-J4AiBjrx2nC4E3j-1" vertex="1">
                    <mxGeometry x="520" y="270" width="70" height="20" as="geometry"/>
                </mxCell>
                <mxCell id="qwi-tcZrJFymVucxJc4y-26" value="" style="endArrow=none;html=1;fontSize=8;exitX=0.5;exitY=1;exitDx=0;exitDy=0;entryX=0.5;entryY=0;entryDx=0;entryDy=0;fontStyle=0" parent="1wIh-J4AiBjrx2nC4E3j-1" source="qwi-tcZrJFymVucxJc4y-24" target="qwi-tcZrJFymVucxJc4y-24" edge="1">
                    <mxGeometry width="50" height="50" relative="1" as="geometry">
                        <mxPoint x="510" y="320" as="sourcePoint"/>
                        <mxPoint x="560" y="270" as="targetPoint"/>
                    </mxGeometry>
                </mxCell>
                <mxCell id="qwi-tcZrJFymVucxJc4y-27" value="" style="html=1;shadow=0;dashed=0;align=center;verticalAlign=middle;shape=mxgraph.arrows2.arrow;dy=0.6;dx=40;direction=north;notch=0;fontSize=8;fontStyle=0" parent="1wIh-J4AiBjrx2nC4E3j-1" vertex="1">
                    <mxGeometry x="540" y="270" width="10" height="20" as="geometry"/>
                </mxCell>
                <mxCell id="qwi-tcZrJFymVucxJc4y-28" value="" style="html=1;shadow=0;dashed=0;align=center;verticalAlign=middle;shape=mxgraph.arrows2.arrow;dy=0.6;dx=40;direction=south;notch=0;fontSize=8;fontStyle=0" parent="1wIh-J4AiBjrx2nC4E3j-1" vertex="1">
                    <mxGeometry x="575" y="270" width="15" height="20" as="geometry"/>
                </mxCell>
                <mxCell id="qwi-tcZrJFymVucxJc4y-30" value="Num" style="text;html=1;strokeColor=none;fillColor=none;align=center;verticalAlign=middle;whiteSpace=wrap;rounded=0;fontSize=8;fontStyle=0" parent="1wIh-J4AiBjrx2nC4E3j-1" vertex="1">
                    <mxGeometry x="520" y="280" width="30" height="10" as="geometry"/>
                </mxCell>
                <mxCell id="qwi-tcZrJFymVucxJc4y-31" value="Num" style="text;html=1;strokeColor=none;fillColor=none;align=center;verticalAlign=middle;whiteSpace=wrap;rounded=0;fontSize=8;fontStyle=0" parent="1wIh-J4AiBjrx2nC4E3j-1" vertex="1">
                    <mxGeometry x="555" y="280" width="30" height="10" as="geometry"/>
                </mxCell>
                <mxCell id="qwi-tcZrJFymVucxJc4y-33" value="&lt;font style=&quot;font-size: 12px;&quot;&gt;Answer&lt;/font&gt;" style="rounded=1;whiteSpace=wrap;html=1;fontSize=8;fontStyle=0" parent="1wIh-J4AiBjrx2nC4E3j-1" vertex="1">
                    <mxGeometry x="170" y="290" width="420" height="65" as="geometry"/>
                </mxCell>
                <mxCell id="qwi-tcZrJFymVucxJc4y-48" value="&lt;font style=&quot;font-size: 8px;&quot;&gt;View Whole Discussion&lt;/font&gt;" style="text;html=1;strokeColor=none;fillColor=none;align=center;verticalAlign=middle;whiteSpace=wrap;rounded=0;fontSize=12;fontStyle=4" parent="1wIh-J4AiBjrx2nC4E3j-1" vertex="1">
                    <mxGeometry x="280" y="355" width="200" height="10" as="geometry"/>
                </mxCell>
                <mxCell id="qwi-tcZrJFymVucxJc4y-49" value="" style="rounded=1;whiteSpace=wrap;html=1;fontSize=12;fontStyle=0" parent="1wIh-J4AiBjrx2nC4E3j-1" vertex="1">
                    <mxGeometry x="160" y="390" width="440" height="150" as="geometry"/>
                </mxCell>
                <mxCell id="qwi-tcZrJFymVucxJc4y-50" value="" style="rounded=1;whiteSpace=wrap;html=1;fontSize=12;fontStyle=0" parent="1wIh-J4AiBjrx2nC4E3j-1" vertex="1">
                    <mxGeometry x="170" y="440" width="420" height="80" as="geometry"/>
                </mxCell>
                <mxCell id="qwi-tcZrJFymVucxJc4y-51" value="&lt;font style=&quot;font-size: 8px;&quot;&gt;Asker Name&lt;/font&gt;" style="text;html=1;strokeColor=none;fillColor=none;align=center;verticalAlign=middle;whiteSpace=wrap;rounded=0;fontSize=12;fontStyle=0" parent="1wIh-J4AiBjrx2nC4E3j-1" vertex="1">
                    <mxGeometry x="170" y="390" width="50" height="20" as="geometry"/>
                </mxCell>
                <mxCell id="qwi-tcZrJFymVucxJc4y-52" value="&lt;font style=&quot;font-size: 6px;&quot;&gt;NumUpvotes&lt;/font&gt;" style="rounded=1;whiteSpace=wrap;html=1;fontSize=8;align=left;fontStyle=0" parent="1wIh-J4AiBjrx2nC4E3j-1" vertex="1">
                    <mxGeometry x="520" y="390" width="80" height="20" as="geometry"/>
                </mxCell>
                <mxCell id="qwi-tcZrJFymVucxJc4y-53" value="" style="sketch=0;html=1;aspect=fixed;strokeColor=none;shadow=0;align=center;verticalAlign=top;fillColor=#3B8DF1;shape=mxgraph.gcp2.thumbs_up;fontSize=6;fontStyle=0" parent="1wIh-J4AiBjrx2nC4E3j-1" vertex="1">
                    <mxGeometry x="570" y="390" width="20" height="20" as="geometry"/>
                </mxCell>
                <mxCell id="qwi-tcZrJFymVucxJc4y-54" value="Question" style="rounded=1;whiteSpace=wrap;html=1;fontSize=12;fontStyle=0" parent="1wIh-J4AiBjrx2nC4E3j-1" vertex="1">
                    <mxGeometry x="170" y="410" width="420" height="30" as="geometry"/>
                </mxCell>
                <mxCell id="qwi-tcZrJFymVucxJc4y-55" value="&lt;font style=&quot;font-size: 8px;&quot;&gt;Answerer Name&lt;/font&gt;" style="text;html=1;strokeColor=none;fillColor=none;align=center;verticalAlign=middle;whiteSpace=wrap;rounded=0;fontSize=12;fontStyle=0" parent="1wIh-J4AiBjrx2nC4E3j-1" vertex="1">
                    <mxGeometry x="170" y="435" width="60" height="30" as="geometry"/>
                </mxCell>
                <mxCell id="qwi-tcZrJFymVucxJc4y-56" value="" style="rounded=1;whiteSpace=wrap;html=1;fontSize=8;fontStyle=0" parent="1wIh-J4AiBjrx2nC4E3j-1" vertex="1">
                    <mxGeometry x="520" y="440" width="70" height="20" as="geometry"/>
                </mxCell>
                <mxCell id="qwi-tcZrJFymVucxJc4y-57" value="" style="endArrow=none;html=1;fontSize=8;exitX=0.5;exitY=1;exitDx=0;exitDy=0;entryX=0.5;entryY=0;entryDx=0;entryDy=0;fontStyle=0" parent="1wIh-J4AiBjrx2nC4E3j-1" source="qwi-tcZrJFymVucxJc4y-56" target="qwi-tcZrJFymVucxJc4y-56" edge="1">
                    <mxGeometry width="50" height="50" relative="1" as="geometry">
                        <mxPoint x="470" y="450" as="sourcePoint"/>
                        <mxPoint x="520" y="400" as="targetPoint"/>
                    </mxGeometry>
                </mxCell>
                <mxCell id="qwi-tcZrJFymVucxJc4y-58" value="" style="html=1;shadow=0;dashed=0;align=center;verticalAlign=middle;shape=mxgraph.arrows2.arrow;dy=0.6;dx=40;direction=north;notch=0;fontSize=8;fontStyle=0" parent="1wIh-J4AiBjrx2nC4E3j-1" vertex="1">
                    <mxGeometry x="540" y="440" width="10" height="20" as="geometry"/>
                </mxCell>
                <mxCell id="qwi-tcZrJFymVucxJc4y-59" value="" style="html=1;shadow=0;dashed=0;align=center;verticalAlign=middle;shape=mxgraph.arrows2.arrow;dy=0.6;dx=40;direction=south;notch=0;fontSize=8;fontStyle=0" parent="1wIh-J4AiBjrx2nC4E3j-1" vertex="1">
                    <mxGeometry x="575" y="440" width="15" height="20" as="geometry"/>
                </mxCell>
                <mxCell id="qwi-tcZrJFymVucxJc4y-60" value="Num" style="text;html=1;strokeColor=none;fillColor=none;align=center;verticalAlign=middle;whiteSpace=wrap;rounded=0;fontSize=8;fontStyle=0" parent="1wIh-J4AiBjrx2nC4E3j-1" vertex="1">
                    <mxGeometry x="520" y="450" width="30" height="10" as="geometry"/>
                </mxCell>
                <mxCell id="qwi-tcZrJFymVucxJc4y-61" value="Num" style="text;html=1;strokeColor=none;fillColor=none;align=center;verticalAlign=middle;whiteSpace=wrap;rounded=0;fontSize=8;fontStyle=0" parent="1wIh-J4AiBjrx2nC4E3j-1" vertex="1">
                    <mxGeometry x="555" y="450" width="30" height="10" as="geometry"/>
                </mxCell>
                <mxCell id="qwi-tcZrJFymVucxJc4y-62" value="&lt;font style=&quot;font-size: 12px;&quot;&gt;Answer&lt;/font&gt;" style="rounded=1;whiteSpace=wrap;html=1;fontSize=8;fontStyle=0" parent="1wIh-J4AiBjrx2nC4E3j-1" vertex="1">
                    <mxGeometry x="170" y="460" width="420" height="65" as="geometry"/>
                </mxCell>
                <mxCell id="qwi-tcZrJFymVucxJc4y-63" value="&lt;font style=&quot;font-size: 8px;&quot;&gt;View Whole Discussion&lt;/font&gt;" style="text;html=1;strokeColor=none;fillColor=none;align=center;verticalAlign=middle;whiteSpace=wrap;rounded=0;fontSize=12;fontStyle=4" parent="1wIh-J4AiBjrx2nC4E3j-1" vertex="1">
                    <mxGeometry x="280" y="525" width="200" height="10" as="geometry"/>
                </mxCell>
                <mxCell id="qwi-tcZrJFymVucxJc4y-64" value="" style="rounded=1;whiteSpace=wrap;html=1;fontSize=8;fontStyle=0" parent="1wIh-J4AiBjrx2nC4E3j-1" vertex="1">
                    <mxGeometry x="160" y="195" width="110" height="20" as="geometry"/>
                </mxCell>
                <mxCell id="qwi-tcZrJFymVucxJc4y-65" value="" style="endArrow=none;html=1;fontSize=8;exitX=0.5;exitY=1;exitDx=0;exitDy=0;entryX=0.5;entryY=0;entryDx=0;entryDy=0;fontStyle=0" parent="1wIh-J4AiBjrx2nC4E3j-1" source="qwi-tcZrJFymVucxJc4y-64" target="qwi-tcZrJFymVucxJc4y-64" edge="1">
                    <mxGeometry width="50" height="50" relative="1" as="geometry">
                        <mxPoint x="170" y="245" as="sourcePoint"/>
                        <mxPoint x="220" y="195" as="targetPoint"/>
                    </mxGeometry>
                </mxCell>
                <mxCell id="qwi-tcZrJFymVucxJc4y-66" value="Popular" style="text;html=1;strokeColor=none;fillColor=none;align=center;verticalAlign=middle;whiteSpace=wrap;rounded=0;fontSize=8;fontStyle=0" parent="1wIh-J4AiBjrx2nC4E3j-1" vertex="1">
                    <mxGeometry x="160" y="195" width="50" height="25" as="geometry"/>
                </mxCell>
                <mxCell id="qwi-tcZrJFymVucxJc4y-67" value="Recent" style="text;html=1;strokeColor=none;fillColor=none;align=center;verticalAlign=middle;whiteSpace=wrap;rounded=0;fontSize=8;fontStyle=0" parent="1wIh-J4AiBjrx2nC4E3j-1" vertex="1">
                    <mxGeometry x="215" y="195" width="50" height="25" as="geometry"/>
                </mxCell>
                <mxCell id="oWFiZ46cA2aoWWjlbJ6O-1" value="" style="rounded=0;whiteSpace=wrap;html=1;fontSize=8;fontStyle=0" parent="1wIh-J4AiBjrx2nC4E3j-1" vertex="1">
                    <mxGeometry y="40" width="120" height="240" as="geometry"/>
                </mxCell>
                <mxCell id="oWFiZ46cA2aoWWjlbJ6O-2" value="&lt;ul&gt;&lt;li&gt;Topic 1&lt;/li&gt;&lt;li&gt;Topic 2&lt;/li&gt;&lt;li&gt;Topic 3&lt;/li&gt;&lt;li&gt;Topic 4&lt;/li&gt;&lt;/ul&gt;" style="text;strokeColor=none;fillColor=none;html=1;whiteSpace=wrap;verticalAlign=middle;overflow=hidden;fontSize=8;align=left;fontStyle=0" parent="1wIh-J4AiBjrx2nC4E3j-1" vertex="1">
                    <mxGeometry y="40" width="120" height="240" as="geometry"/>
                </mxCell>
                <mxCell id="6nedt9AjUgWaYN35NtTZ-1" value="Note: Clicking anywhere on the outer Q/A box should let user view whole discussion" style="text;html=1;strokeColor=none;fillColor=none;align=center;verticalAlign=middle;whiteSpace=wrap;rounded=0;fontSize=8;fontStyle=2" parent="1wIh-J4AiBjrx2nC4E3j-1" vertex="1">
                    <mxGeometry x="640" y="220" width="110" height="50" as="geometry"/>
                </mxCell>
            </root>
        </mxGraphModel>
    </diagram>
    <diagram id="LeoTDf-KVe7SUwEXwQ8s" name="Expanded Discussion">
        <mxGraphModel dx="736" dy="400" grid="1" gridSize="10" guides="1" tooltips="1" connect="1" arrows="1" fold="1" page="1" pageScale="1" pageWidth="827" pageHeight="1169" math="0" shadow="0">
            <root>
                <mxCell id="0"/>
                <mxCell id="1" parent="0"/>
                <mxCell id="AFlFCtvSjgOMFmuG4B5u-1" value="QnA Project Title" style="swimlane;whiteSpace=wrap;html=1;startSize=40;" parent="1" vertex="1">
                    <mxGeometry x="40" y="40" width="760" height="560" as="geometry"/>
                </mxCell>
                <mxCell id="AFlFCtvSjgOMFmuG4B5u-3" value="" style="sketch=0;aspect=fixed;pointerEvents=1;shadow=0;dashed=0;html=1;strokeColor=none;labelPosition=center;verticalLabelPosition=bottom;verticalAlign=top;align=center;fillColor=#00188D;shape=mxgraph.mscae.enterprise.protocol_stack" parent="AFlFCtvSjgOMFmuG4B5u-1" vertex="1">
                    <mxGeometry y="10" width="29.41" height="20" as="geometry"/>
                </mxCell>
                <mxCell id="AFlFCtvSjgOMFmuG4B5u-7" value="Topic Name" style="rounded=1;whiteSpace=wrap;html=1;" parent="AFlFCtvSjgOMFmuG4B5u-1" vertex="1">
                    <mxGeometry width="210" height="40" as="geometry"/>
                </mxCell>
                <mxCell id="AFlFCtvSjgOMFmuG4B5u-12" value="&lt;font style=&quot;font-size: 8px;&quot;&gt;Num ANSWERS&lt;/font&gt;" style="text;html=1;strokeColor=none;fillColor=none;align=center;verticalAlign=middle;whiteSpace=wrap;rounded=0;" parent="AFlFCtvSjgOMFmuG4B5u-1" vertex="1">
                    <mxGeometry x="530" y="60" width="70" height="30" as="geometry"/>
                </mxCell>
                <mxCell id="AFlFCtvSjgOMFmuG4B5u-14" value="" style="rounded=1;whiteSpace=wrap;html=1;fontSize=12;" parent="AFlFCtvSjgOMFmuG4B5u-1" vertex="1">
                    <mxGeometry x="160" y="90" width="440" height="450" as="geometry"/>
                </mxCell>
                <mxCell id="AFlFCtvSjgOMFmuG4B5u-15" value="" style="rounded=1;whiteSpace=wrap;html=1;fontSize=12;" parent="AFlFCtvSjgOMFmuG4B5u-1" vertex="1">
                    <mxGeometry x="170" y="140" width="420" height="80" as="geometry"/>
                </mxCell>
                <mxCell id="AFlFCtvSjgOMFmuG4B5u-16" value="&lt;font style=&quot;font-size: 8px;&quot;&gt;Asker Name&lt;/font&gt;" style="text;html=1;strokeColor=none;fillColor=none;align=center;verticalAlign=middle;whiteSpace=wrap;rounded=0;fontSize=12;" parent="AFlFCtvSjgOMFmuG4B5u-1" vertex="1">
                    <mxGeometry x="170" y="90" width="50" height="20" as="geometry"/>
                </mxCell>
                <mxCell id="AFlFCtvSjgOMFmuG4B5u-17" value="&lt;font style=&quot;font-size: 6px;&quot;&gt;NumUpvotes&lt;/font&gt;" style="rounded=1;whiteSpace=wrap;html=1;fontSize=8;align=left;" parent="AFlFCtvSjgOMFmuG4B5u-1" vertex="1">
                    <mxGeometry x="520" y="90" width="80" height="20" as="geometry"/>
                </mxCell>
                <mxCell id="AFlFCtvSjgOMFmuG4B5u-18" value="" style="sketch=0;html=1;aspect=fixed;strokeColor=none;shadow=0;align=center;verticalAlign=top;fillColor=#3B8DF1;shape=mxgraph.gcp2.thumbs_up;fontSize=6;" parent="AFlFCtvSjgOMFmuG4B5u-1" vertex="1">
                    <mxGeometry x="570" y="90" width="20" height="20" as="geometry"/>
                </mxCell>
                <mxCell id="AFlFCtvSjgOMFmuG4B5u-19" value="Question" style="rounded=1;whiteSpace=wrap;html=1;fontSize=12;" parent="AFlFCtvSjgOMFmuG4B5u-1" vertex="1">
                    <mxGeometry x="170" y="110" width="420" height="30" as="geometry"/>
                </mxCell>
                <mxCell id="AFlFCtvSjgOMFmuG4B5u-20" value="&lt;font style=&quot;font-size: 8px;&quot;&gt;Answerer Name&lt;/font&gt;" style="text;html=1;strokeColor=none;fillColor=none;align=center;verticalAlign=middle;whiteSpace=wrap;rounded=0;fontSize=12;" parent="AFlFCtvSjgOMFmuG4B5u-1" vertex="1">
                    <mxGeometry x="170" y="135" width="60" height="30" as="geometry"/>
                </mxCell>
                <mxCell id="AFlFCtvSjgOMFmuG4B5u-21" value="" style="rounded=1;whiteSpace=wrap;html=1;fontSize=8;" parent="AFlFCtvSjgOMFmuG4B5u-1" vertex="1">
                    <mxGeometry x="520" y="140" width="70" height="20" as="geometry"/>
                </mxCell>
                <mxCell id="AFlFCtvSjgOMFmuG4B5u-22" value="" style="endArrow=none;html=1;fontSize=8;exitX=0.5;exitY=1;exitDx=0;exitDy=0;entryX=0.5;entryY=0;entryDx=0;entryDy=0;" parent="AFlFCtvSjgOMFmuG4B5u-1" source="AFlFCtvSjgOMFmuG4B5u-21" target="AFlFCtvSjgOMFmuG4B5u-21" edge="1">
                    <mxGeometry width="50" height="50" relative="1" as="geometry">
                        <mxPoint x="510" y="190" as="sourcePoint"/>
                        <mxPoint x="560" y="140" as="targetPoint"/>
                    </mxGeometry>
                </mxCell>
                <mxCell id="AFlFCtvSjgOMFmuG4B5u-23" value="" style="html=1;shadow=0;dashed=0;align=center;verticalAlign=middle;shape=mxgraph.arrows2.arrow;dy=0.6;dx=40;direction=north;notch=0;fontSize=8;" parent="AFlFCtvSjgOMFmuG4B5u-1" vertex="1">
                    <mxGeometry x="540" y="140" width="10" height="20" as="geometry"/>
                </mxCell>
                <mxCell id="AFlFCtvSjgOMFmuG4B5u-24" value="" style="html=1;shadow=0;dashed=0;align=center;verticalAlign=middle;shape=mxgraph.arrows2.arrow;dy=0.6;dx=40;direction=south;notch=0;fontSize=8;" parent="AFlFCtvSjgOMFmuG4B5u-1" vertex="1">
                    <mxGeometry x="575" y="140" width="15" height="20" as="geometry"/>
                </mxCell>
                <mxCell id="AFlFCtvSjgOMFmuG4B5u-25" value="Num" style="text;html=1;strokeColor=none;fillColor=none;align=center;verticalAlign=middle;whiteSpace=wrap;rounded=0;fontSize=8;" parent="AFlFCtvSjgOMFmuG4B5u-1" vertex="1">
                    <mxGeometry x="520" y="150" width="30" height="10" as="geometry"/>
                </mxCell>
                <mxCell id="AFlFCtvSjgOMFmuG4B5u-26" value="Num" style="text;html=1;strokeColor=none;fillColor=none;align=center;verticalAlign=middle;whiteSpace=wrap;rounded=0;fontSize=8;" parent="AFlFCtvSjgOMFmuG4B5u-1" vertex="1">
                    <mxGeometry x="555" y="150" width="30" height="10" as="geometry"/>
                </mxCell>
                <mxCell id="AFlFCtvSjgOMFmuG4B5u-27" value="&lt;font style=&quot;font-size: 12px;&quot;&gt;Answer&lt;/font&gt;" style="rounded=1;whiteSpace=wrap;html=1;fontSize=8;" parent="AFlFCtvSjgOMFmuG4B5u-1" vertex="1">
                    <mxGeometry x="170" y="160" width="420" height="100" as="geometry"/>
                </mxCell>
                <mxCell id="AFlFCtvSjgOMFmuG4B5u-28" value="&lt;font style=&quot;font-size: 8px;&quot;&gt;Minimise Discussion&lt;/font&gt;" style="text;html=1;strokeColor=none;fillColor=none;align=center;verticalAlign=middle;whiteSpace=wrap;rounded=0;fontSize=12;fontStyle=4" parent="AFlFCtvSjgOMFmuG4B5u-1" vertex="1">
                    <mxGeometry x="280" y="530" width="200" height="10" as="geometry"/>
                </mxCell>
                <mxCell id="AFlFCtvSjgOMFmuG4B5u-50" value="" style="rounded=1;whiteSpace=wrap;html=1;fontSize=12;" parent="AFlFCtvSjgOMFmuG4B5u-1" vertex="1">
                    <mxGeometry x="170" y="270" width="420" height="80" as="geometry"/>
                </mxCell>
                <mxCell id="AFlFCtvSjgOMFmuG4B5u-51" value="&lt;font style=&quot;font-size: 8px;&quot;&gt;Answerer Name&lt;/font&gt;" style="text;html=1;strokeColor=none;fillColor=none;align=center;verticalAlign=middle;whiteSpace=wrap;rounded=0;fontSize=12;" parent="AFlFCtvSjgOMFmuG4B5u-1" vertex="1">
                    <mxGeometry x="170" y="265" width="60" height="30" as="geometry"/>
                </mxCell>
                <mxCell id="AFlFCtvSjgOMFmuG4B5u-52" value="" style="rounded=1;whiteSpace=wrap;html=1;fontSize=8;" parent="AFlFCtvSjgOMFmuG4B5u-1" vertex="1">
                    <mxGeometry x="520" y="270" width="70" height="20" as="geometry"/>
                </mxCell>
                <mxCell id="AFlFCtvSjgOMFmuG4B5u-53" value="" style="endArrow=none;html=1;fontSize=8;exitX=0.5;exitY=1;exitDx=0;exitDy=0;entryX=0.5;entryY=0;entryDx=0;entryDy=0;" parent="AFlFCtvSjgOMFmuG4B5u-1" source="AFlFCtvSjgOMFmuG4B5u-52" target="AFlFCtvSjgOMFmuG4B5u-52" edge="1">
                    <mxGeometry width="50" height="50" relative="1" as="geometry">
                        <mxPoint x="470" y="280" as="sourcePoint"/>
                        <mxPoint x="520" y="230" as="targetPoint"/>
                    </mxGeometry>
                </mxCell>
                <mxCell id="AFlFCtvSjgOMFmuG4B5u-54" value="" style="html=1;shadow=0;dashed=0;align=center;verticalAlign=middle;shape=mxgraph.arrows2.arrow;dy=0.6;dx=40;direction=north;notch=0;fontSize=8;" parent="AFlFCtvSjgOMFmuG4B5u-1" vertex="1">
                    <mxGeometry x="540" y="270" width="10" height="20" as="geometry"/>
                </mxCell>
                <mxCell id="AFlFCtvSjgOMFmuG4B5u-55" value="" style="html=1;shadow=0;dashed=0;align=center;verticalAlign=middle;shape=mxgraph.arrows2.arrow;dy=0.6;dx=40;direction=south;notch=0;fontSize=8;" parent="AFlFCtvSjgOMFmuG4B5u-1" vertex="1">
                    <mxGeometry x="575" y="270" width="15" height="20" as="geometry"/>
                </mxCell>
                <mxCell id="AFlFCtvSjgOMFmuG4B5u-56" value="Num" style="text;html=1;strokeColor=none;fillColor=none;align=center;verticalAlign=middle;whiteSpace=wrap;rounded=0;fontSize=8;" parent="AFlFCtvSjgOMFmuG4B5u-1" vertex="1">
                    <mxGeometry x="520" y="280" width="30" height="10" as="geometry"/>
                </mxCell>
                <mxCell id="AFlFCtvSjgOMFmuG4B5u-57" value="Num" style="text;html=1;strokeColor=none;fillColor=none;align=center;verticalAlign=middle;whiteSpace=wrap;rounded=0;fontSize=8;" parent="AFlFCtvSjgOMFmuG4B5u-1" vertex="1">
                    <mxGeometry x="555" y="280" width="30" height="10" as="geometry"/>
                </mxCell>
                <mxCell id="AFlFCtvSjgOMFmuG4B5u-58" value="&lt;font style=&quot;font-size: 12px;&quot;&gt;Answer&lt;/font&gt;" style="rounded=1;whiteSpace=wrap;html=1;fontSize=8;" parent="AFlFCtvSjgOMFmuG4B5u-1" vertex="1">
                    <mxGeometry x="170" y="290" width="420" height="100" as="geometry"/>
                </mxCell>
                <mxCell id="AFlFCtvSjgOMFmuG4B5u-60" value="" style="rounded=1;whiteSpace=wrap;html=1;fontSize=12;" parent="AFlFCtvSjgOMFmuG4B5u-1" vertex="1">
                    <mxGeometry x="170" y="405" width="420" height="80" as="geometry"/>
                </mxCell>
                <mxCell id="AFlFCtvSjgOMFmuG4B5u-61" value="&lt;font style=&quot;font-size: 8px;&quot;&gt;Answerer Name&lt;/font&gt;" style="text;html=1;strokeColor=none;fillColor=none;align=center;verticalAlign=middle;whiteSpace=wrap;rounded=0;fontSize=12;" parent="AFlFCtvSjgOMFmuG4B5u-1" vertex="1">
                    <mxGeometry x="170" y="400" width="60" height="30" as="geometry"/>
                </mxCell>
                <mxCell id="AFlFCtvSjgOMFmuG4B5u-62" value="" style="rounded=1;whiteSpace=wrap;html=1;fontSize=8;" parent="AFlFCtvSjgOMFmuG4B5u-1" vertex="1">
                    <mxGeometry x="520" y="405" width="70" height="20" as="geometry"/>
                </mxCell>
                <mxCell id="AFlFCtvSjgOMFmuG4B5u-63" value="" style="endArrow=none;html=1;fontSize=8;exitX=0.5;exitY=1;exitDx=0;exitDy=0;entryX=0.5;entryY=0;entryDx=0;entryDy=0;" parent="AFlFCtvSjgOMFmuG4B5u-1" source="AFlFCtvSjgOMFmuG4B5u-62" target="AFlFCtvSjgOMFmuG4B5u-62" edge="1">
                    <mxGeometry width="50" height="50" relative="1" as="geometry">
                        <mxPoint x="470" y="415" as="sourcePoint"/>
                        <mxPoint x="520" y="365" as="targetPoint"/>
                    </mxGeometry>
                </mxCell>
                <mxCell id="AFlFCtvSjgOMFmuG4B5u-64" value="" style="html=1;shadow=0;dashed=0;align=center;verticalAlign=middle;shape=mxgraph.arrows2.arrow;dy=0.6;dx=40;direction=north;notch=0;fontSize=8;" parent="AFlFCtvSjgOMFmuG4B5u-1" vertex="1">
                    <mxGeometry x="540" y="405" width="10" height="20" as="geometry"/>
                </mxCell>
                <mxCell id="AFlFCtvSjgOMFmuG4B5u-65" value="" style="html=1;shadow=0;dashed=0;align=center;verticalAlign=middle;shape=mxgraph.arrows2.arrow;dy=0.6;dx=40;direction=south;notch=0;fontSize=8;" parent="AFlFCtvSjgOMFmuG4B5u-1" vertex="1">
                    <mxGeometry x="575" y="405" width="15" height="20" as="geometry"/>
                </mxCell>
                <mxCell id="AFlFCtvSjgOMFmuG4B5u-66" value="Num" style="text;html=1;strokeColor=none;fillColor=none;align=center;verticalAlign=middle;whiteSpace=wrap;rounded=0;fontSize=8;" parent="AFlFCtvSjgOMFmuG4B5u-1" vertex="1">
                    <mxGeometry x="520" y="415" width="30" height="10" as="geometry"/>
                </mxCell>
                <mxCell id="AFlFCtvSjgOMFmuG4B5u-67" value="Num" style="text;html=1;strokeColor=none;fillColor=none;align=center;verticalAlign=middle;whiteSpace=wrap;rounded=0;fontSize=8;" parent="AFlFCtvSjgOMFmuG4B5u-1" vertex="1">
                    <mxGeometry x="555" y="415" width="30" height="10" as="geometry"/>
                </mxCell>
                <mxCell id="AFlFCtvSjgOMFmuG4B5u-68" value="&lt;font style=&quot;font-size: 12px;&quot;&gt;Answer&lt;/font&gt;" style="rounded=1;whiteSpace=wrap;html=1;fontSize=8;" parent="AFlFCtvSjgOMFmuG4B5u-1" vertex="1">
                    <mxGeometry x="170" y="425" width="420" height="100" as="geometry"/>
                </mxCell>
                <mxCell id="6Yn41_wZTME3LANfjYCh-1" value="&lt;div style=&quot;text-align: left;&quot;&gt;&lt;i style=&quot;background-color: initial;&quot;&gt;All answer boxes are&amp;nbsp;&lt;/i&gt;&lt;/div&gt;&lt;i&gt;&lt;div style=&quot;text-align: left;&quot;&gt;&lt;i style=&quot;background-color: initial;&quot;&gt;clcikable that spawns a pop out.&amp;nbsp;&lt;/i&gt;&lt;/div&gt;&lt;/i&gt;" style="rounded=0;whiteSpace=wrap;html=1;strokeColor=none;" parent="AFlFCtvSjgOMFmuG4B5u-1" vertex="1">
                    <mxGeometry x="620" y="170" width="130" height="70" as="geometry"/>
                </mxCell>
                <mxCell id="NZ2opeGkUdHqzer1twI2-1" value="" style="rounded=0;whiteSpace=wrap;html=1;fontSize=8;" parent="1" vertex="1">
                    <mxGeometry x="40" y="80" width="120" height="240" as="geometry"/>
                </mxCell>
                <mxCell id="NZ2opeGkUdHqzer1twI2-2" value="&lt;ul&gt;&lt;li&gt;Topic 1&lt;/li&gt;&lt;li&gt;Topic 2&lt;/li&gt;&lt;li&gt;Topic 3&lt;/li&gt;&lt;li&gt;Topic 4&lt;/li&gt;&lt;/ul&gt;" style="text;strokeColor=none;fillColor=none;html=1;whiteSpace=wrap;verticalAlign=middle;overflow=hidden;fontSize=8;align=left;" parent="1" vertex="1">
                    <mxGeometry x="40" y="80" width="120" height="240" as="geometry"/>
                </mxCell>
            </root>
        </mxGraphModel>
    </diagram>
    <diagram id="whQ5mDXUQlfIWpyV-T-t" name="Answer">
        <mxGraphModel dx="736" dy="684" grid="1" gridSize="10" guides="1" tooltips="1" connect="1" arrows="1" fold="1" page="1" pageScale="1" pageWidth="827" pageHeight="1169" math="0" shadow="0">
            <root>
                <mxCell id="0"/>
                <mxCell id="1" parent="0"/>
                <mxCell id="yhrpN9kU8He76CxwW0dl-2" value="" style="rounded=1;whiteSpace=wrap;html=1;fontSize=12;" parent="1" vertex="1">
                    <mxGeometry x="194" y="70" width="440" height="450" as="geometry"/>
                </mxCell>
                <mxCell id="Zpks3MGAW6ZFD6Ztdb51-1" value="Question" style="rounded=1;whiteSpace=wrap;html=1;fontSize=12;" parent="1" vertex="1">
                    <mxGeometry x="204" y="100" width="420" height="190" as="geometry"/>
                </mxCell>
                <mxCell id="FiaY5OFPZAsX3A_sPpYN-1" value="" style="rounded=1;whiteSpace=wrap;html=1;" parent="1" vertex="1">
                    <mxGeometry x="194" y="300" width="440" height="200" as="geometry"/>
                </mxCell>
                <mxCell id="FiaY5OFPZAsX3A_sPpYN-2" value="Type answer" style="text;html=1;strokeColor=none;fillColor=none;align=center;verticalAlign=middle;whiteSpace=wrap;rounded=0;" parent="1" vertex="1">
                    <mxGeometry x="199" y="310" width="110" height="30" as="geometry"/>
                </mxCell>
                <mxCell id="FiaY5OFPZAsX3A_sPpYN-3" value="" style="rounded=1;whiteSpace=wrap;html=1;align=left;" parent="1" vertex="1">
                    <mxGeometry x="204" y="460" width="170" height="30" as="geometry"/>
                </mxCell>
                <mxCell id="FiaY5OFPZAsX3A_sPpYN-4" value="Answer Anonymously" style="rounded=1;arcSize=10;fillColor=#172B4D;strokeColor=none;html=1;fontSize=11;align=left;fontColor=#ffffff;fontStyle=0;fontSize=11;sketch=0;hachureGap=4;pointerEvents=0;fontFamily=Architects Daughter;fontSource=https%3A%2F%2Ffonts.googleapis.com%2Fcss%3Ffamily%3DArchitects%2BDaughter;" parent="1" vertex="1">
                    <mxGeometry x="204" y="465" width="150" height="20" as="geometry"/>
                </mxCell>
                <mxCell id="FiaY5OFPZAsX3A_sPpYN-5" value="" style="fillColor=#36B37E;strokeColor=none;rounded=1;arcSize=50;sketch=0;hachureGap=4;pointerEvents=0;fontFamily=Architects Daughter;fontSource=https%3A%2F%2Ffonts.googleapis.com%2Fcss%3Ffamily%3DArchitects%2BDaughter;fontSize=20;" parent="1" vertex="1">
                    <mxGeometry x="320" y="467" width="30" height="16" as="geometry"/>
                </mxCell>
                <mxCell id="FiaY5OFPZAsX3A_sPpYN-6" value="" style="shape=ellipse;strokeColor=none;fillColor=#9AD9BE;sketch=0;hachureGap=4;pointerEvents=0;fontFamily=Architects Daughter;fontSource=https%3A%2F%2Ffonts.googleapis.com%2Fcss%3Ffamily%3DArchitects%2BDaughter;fontSize=20;" parent="FiaY5OFPZAsX3A_sPpYN-5" vertex="1">
                    <mxGeometry x="1" y="0.5" width="12" height="12" relative="1" as="geometry">
                        <mxPoint x="-14" y="-6" as="offset"/>
                    </mxGeometry>
                </mxCell>
                <mxCell id="FiaY5OFPZAsX3A_sPpYN-7" value="" style="html=1;shadow=0;dashed=0;shape=mxgraph.atlassian.check;strokeColor=#9AD9BE;sketch=1;hachureGap=4;pointerEvents=0;fontFamily=Architects Daughter;fontSource=https%3A%2F%2Ffonts.googleapis.com%2Fcss%3Ffamily%3DArchitects%2BDaughter;fontSize=20;" parent="FiaY5OFPZAsX3A_sPpYN-5" vertex="1">
                    <mxGeometry y="0.5" width="6" height="5" relative="1" as="geometry">
                        <mxPoint x="4" y="-3" as="offset"/>
                    </mxGeometry>
                </mxCell>
                <mxCell id="FiaY5OFPZAsX3A_sPpYN-8" value="&lt;font style=&quot;font-size: 12px;&quot;&gt;Send&lt;/font&gt;" style="rounded=1;whiteSpace=wrap;html=1;fontSize=8;" parent="1" vertex="1">
                    <mxGeometry x="554" y="460" width="70" height="30" as="geometry"/>
                </mxCell>
                <mxCell id="4PkKQuu8n020xcTHSzT3-1" value="Asker Name" style="text;html=1;strokeColor=none;fillColor=none;align=center;verticalAlign=middle;whiteSpace=wrap;rounded=0;fontSize=8;" parent="1" vertex="1">
                    <mxGeometry x="210" y="100" width="60" height="30" as="geometry"/>
                </mxCell>
            </root>
        </mxGraphModel>
    </diagram>
</mxfile>